<?xml version="1.0" standalone="no"?>
<!DOCTYPE svg PUBLIC "-//W3C//DTD SVG 20010904//EN"
 "http://www.w3.org/TR/2001/REC-SVG-20010904/DTD/svg10.dtd">
<svg version="1.0" xmlns="http://www.w3.org/2000/svg"
 width="920.000000pt" height="600.000000pt" viewBox="0 0 920.000000 600.000000"
 preserveAspectRatio="xMidYMid meet">

<g transform="translate(0.000000,600.000000) scale(0.100000,-0.100000)"
fill="#000000" stroke="none">
<path d="M4375 5171 c-113 -28 -210 -126 -230 -234 -4 -21 -12 -40 -19 -44 -6
-4 -54 -6 -106 -4 -121 4 -230 -21 -360 -82 -73 -35 -100 -53 -117 -80 -19
-31 -28 -36 -88 -46 -85 -15 -127 -29 -305 -103 -184 -77 -213 -91 -280 -143
-149 -115 -270 -281 -298 -410 -6 -27 -19 -81 -28 -120 -26 -106 -28 -173 -6
-220 l19 -40 -27 -50 c-14 -27 -39 -81 -54 -118 -29 -69 -29 -69 -8 -173 7
-31 5 -46 -6 -60 -8 -10 -26 -44 -41 -74 -14 -30 -38 -71 -53 -90 -96 -128
-82 -232 16 -124 l44 47 -2 -99 c-1 -98 -1 -99 23 -102 31 -5 51 21 51 62 0
38 14 61 30 51 8 -5 9 -22 5 -55 -8 -59 -1 -86 25 -93 25 -7 48 12 52 43 3 23
6 25 50 22 l47 -3 12 43 c8 26 14 36 16 26 3 -10 11 -18 18 -18 31 0 40 43 42
199 1 124 5 156 18 171 27 30 29 83 6 169 -21 76 -21 81 -4 123 9 23 30 61 45
82 30 42 36 93 17 143 -7 19 -7 39 0 63 5 19 13 53 16 75 9 51 64 106 126 124
47 14 118 51 157 82 18 14 29 16 49 8 14 -5 69 -11 123 -14 101 -4 200 -12
258 -21 47 -7 58 -41 36 -110 -10 -34 -14 -65 -9 -86 18 -90 17 -127 -4 -155
-16 -19 -20 -34 -16 -55 5 -22 1 -35 -19 -59 -14 -17 -29 -43 -33 -57 -3 -15
-21 -50 -40 -79 -18 -29 -33 -55 -33 -59 0 -3 -11 -19 -25 -36 -13 -16 -29
-46 -35 -68 -6 -21 -17 -51 -25 -67 -8 -15 -15 -44 -15 -64 0 -20 -6 -49 -14
-65 -8 -16 -17 -49 -21 -73 -5 -30 -16 -51 -38 -71 l-30 -27 12 -94 c15 -107
19 -117 74 -179 21 -25 50 -67 64 -95 50 -98 126 -206 178 -253 29 -26 58 -58
65 -72 7 -14 24 -38 39 -53 l26 -28 -45 6 c-25 4 -99 17 -166 30 -432 85 -627
75 -761 -40 -29 -24 -49 -53 -64 -93 -19 -52 -20 -63 -10 -125 14 -82 37 -131
88 -181 76 -75 173 -107 373 -121 124 -8 637 -51 860 -71 266 -23 421 -41 570
-64 74 -11 164 -25 200 -30 600 -87 1308 -213 1536 -274 233 -63 439 -60 570
7 102 52 239 190 289 291 42 84 26 183 -34 215 -10 6 -68 11 -128 10 -141 0
-593 48 -938 100 -104 16 -214 32 -242 36 l-53 7 0 46 c1 44 2 46 15 28 14
-18 15 -17 15 22 0 57 -24 114 -44 106 -16 -6 -20 0 -30 48 -5 21 1 33 25 57
40 41 36 58 -41 146 -33 39 -63 81 -66 95 -9 46 -29 75 -66 95 -45 24 -76 63
-112 135 -15 30 -33 62 -41 70 -7 8 -21 35 -32 60 -24 53 -134 201 -174 233
-38 30 -75 111 -82 177 -3 30 -26 116 -52 190 -26 75 -46 151 -46 171 1 22 -6
44 -18 58 -32 37 -42 109 -31 215 10 83 9 99 -8 143 l-19 50 64 -49 c35 -26
78 -55 96 -65 65 -33 121 -92 213 -224 52 -75 112 -153 134 -173 24 -22 49
-57 61 -89 11 -28 38 -85 60 -124 21 -40 39 -79 39 -86 0 -18 28 -75 41 -82
13 -9 11 -167 -3 -220 -10 -39 -10 -47 4 -61 18 -18 44 -9 86 29 l22 20 0 -37
c0 -20 -10 -65 -22 -100 -12 -34 -19 -70 -15 -79 10 -26 50 -20 82 13 16 17
32 30 37 30 4 0 8 -27 8 -59 0 -33 5 -63 11 -67 6 -3 25 8 44 26 31 30 33 30
38 11 7 -30 29 -18 61 33 15 24 37 47 48 49 19 5 20 11 16 71 -5 52 -17 90
-64 188 -59 125 -67 168 -49 246 4 17 -3 31 -25 53 -17 17 -30 41 -30 55 0 13
-4 32 -10 42 -5 9 -14 30 -20 45 -6 18 -21 32 -40 39 -45 15 -51 35 -40 126 7
55 7 95 0 128 -13 58 -54 145 -86 184 -14 16 -42 66 -63 112 -47 100 -207 292
-291 349 -19 13 -61 47 -92 76 -54 50 -240 150 -308 167 -50 12 -130 65 -130
87 0 23 -15 55 -38 82 -8 9 -28 56 -43 103 -29 90 -82 181 -121 209 -133 93
-186 109 -283 86z m28 -1799 c94 -45 210 -246 263 -456 8 -34 28 -79 43 -101
16 -22 40 -63 54 -92 15 -28 41 -61 58 -74 20 -14 43 -48 64 -93 25 -54 49
-87 101 -137 103 -98 146 -153 175 -223 30 -74 56 -112 104 -155 23 -20 35
-39 35 -57 0 -25 -2 -26 -47 -22 -27 2 -247 33 -490 68 l-443 65 0 80 c0 139
-19 193 -107 308 -23 30 -51 75 -64 101 -12 26 -60 86 -111 138 -105 107 -117
128 -116 197 0 47 4 56 41 95 23 24 58 64 77 91 54 75 219 244 259 265 45 24
59 24 104 2z"/>
</g>
</svg>
